<?xml version="1.0" encoding="utf-8"?>
<!-- Generator: Adobe Illustrator 15.1.0, SVG Export Plug-In . SVG Version: 6.00 Build 0)  -->
<!DOCTYPE svg PUBLIC "-//W3C//DTD SVG 1.1//EN" "http://www.w3.org/Graphics/SVG/1.1/DTD/svg11.dtd">
<svg version="1.1" id="Layer_1" xmlns="http://www.w3.org/2000/svg" xmlns:xlink="http://www.w3.org/1999/xlink" x="0px" y="0px"
	 width="1000px" height="1000px" viewBox="0 0 1000 1000" enable-background="new 0 0 1000 1000" xml:space="preserve">
<path fill="#FFFFFF" d="M865.35,132.138c10.414-10.399,10.439-27.279,0.053-37.69c-5.023-5.011-11.816-7.822-18.896-7.822H153.504
	c-14.719-0.014-26.667,11.908-26.68,26.628c0,7.08,2.812,13.873,7.822,18.885l338.705,338.679v202.194H366.735
	c-14.719,0-26.654,11.92-26.654,26.654c0,14.732,11.935,26.652,26.654,26.652h266.539c14.734,0,26.654-11.92,26.654-26.652
	c0-14.734-11.92-26.654-26.654-26.654H526.658V470.816L865.35,132.138z M217.835,139.933H782.16l-53.307,53.308h-457.71
	L217.835,139.933z M500.004,422.09L324.451,246.548h351.094L500.004,422.09z"/>
<rect x="0" y="749.239" fill="none" width="1000" height="164.136"/>
<text transform="matrix(1 0 0 1 56.9272 881.6416)" fill="#FFFFFF" font-family="'ScriptMTBold'" font-size="190.2334">Cocktailista</text>
</svg>
